<!-- icon666.com - MILLIONS vector ICONS FREE --><svg viewBox="0 -16 512 512" xmlns="http://www.w3.org/2000/svg"><path d="m115.53125 118.898438 29.863281 185.878906c3.933594 24.441406 25.019531 42.417968 49.777344 42.417968h205.589844c24.757812 0 45.84375-17.976562 49.777343-42.417968l29.863282-185.878906zm104.570312 193.644531c-10.640624 1.101562-20.160156-6.632813-21.25-17.273438l-13.402343-129.765625c-.070313-.671875-.101563-1.335937-.101563-1.996094 0-9.816406 7.417969-18.234374 17.375-19.253906 10.640625-1.101562 20.160156 6.636719 21.25 17.277344l13.394532 129.761719c1.101562 10.640625-6.636719 20.148437-17.265626 21.25zm97.230469-19.363281c0 10.691406-8.671875 19.363281-19.363281 19.363281s-19.367188-8.671875-19.367188-19.363281v-130.457032c0-10.691406 8.675782-19.363281 19.367188-19.363281 5.339844 0 10.191406 2.167969 13.6875 5.675781 3.503906 3.496094 5.675781 8.347656 5.675781 13.6875zm93.15625-127.675782-13.402343 129.765625c-1.09375 10.640625-10.613282 18.375-21.253907 17.273438-10.628906-1.101563-18.363281-10.609375-17.261719-21.25l13.390626-129.761719c1.089843-10.640625 10.609374-18.378906 21.25-17.277344 9.957031 1.019532 17.378906 9.4375 17.378906 19.253906 0 .660157-.03125 1.324219-.101563 1.996094zm0 0" fill="#75b2cc"></path><g fill="#f4c84d"><path d="m226.695312 440.960938c0 17.410156-14.109374 31.523437-31.519531 31.523437-17.410156 0-31.523437-14.113281-31.523437-31.523437 0-17.410157 14.113281-31.519532 31.523437-31.519532 17.410157 0 31.519531 14.109375 31.519531 31.519532zm0 0"></path><path d="m416.121094 440.960938c0 17.410156-14.113282 31.523437-31.523438 31.523437-17.40625 0-31.519531-14.113281-31.519531-31.523437 0-17.410157 14.113281-31.519532 31.519531-31.519532 17.410156 0 31.523438 14.109375 31.523438 31.519532zm0 0"></path><path d="m70.6875 39.167969c0 17.40625-14.113281 31.519531-31.519531 31.519531-17.410157 0-31.523438-14.113281-31.523438-31.519531 0-17.410157 14.113281-31.523438 31.523438-31.523438 17.40625 0 31.519531 14.113281 31.519531 31.523438zm0 0"></path></g><path d="m504.355469 100.550781c0 10.132813-8.214844 18.347657-18.34375 18.347657h-370.480469l-5.890625-36.691407h376.371094c10.128906 0 18.34375 8.210938 18.34375 18.34375zm0 0" fill="#75b2cc"></path><path d="m324.976562 293.179688v-130.457032c0-14.890625-12.117187-27.007812-27.007812-27.007812-14.894531 0-27.007812 12.117187-27.007812 27.007812v130.457032c0 14.890624 12.113281 27.007812 27.007812 27.007812 14.890625 0 27.007812-12.117188 27.007812-27.007812zm-38.730468 0v-130.457032c0-6.460937 5.257812-11.71875 11.722656-11.71875 6.460938 0 11.71875 5.257813 11.71875 11.71875v130.457032c0 6.460937-5.257812 11.71875-11.71875 11.71875-6.464844 0-11.722656-5.257813-11.722656-11.71875zm0 0"></path><path d="m375.054688 320.148438c.945312.097656 1.886718.144531 2.824218.144531 6.179688 0 12.125-2.101563 16.984375-6.054688 5.597657-4.550781 9.089844-11.007812 9.832031-18.183593l13.390626-129.765626c.742187-7.179687-1.355469-14.214843-5.90625-19.8125-4.550782-5.597656-11.007813-9.085937-18.1875-9.828124-7.171876-.742188-14.207032 1.355468-19.808594 5.90625-5.597656 4.550781-9.085938 11.011718-9.828125 18.1875l-13.394531 129.765624c-.738282 7.175782 1.359374 14.210938 5.910156 19.808594 4.546875 5.597656 11.007812 9.089844 18.183594 9.832032zm-8.886719-28.070313 13.390625-129.769531c.324218-3.113282 1.839844-5.914063 4.265625-7.890625 2.109375-1.714844 4.691406-2.625 7.371093-2.625.40625 0 .816407.019531 1.226563.0625 3.113281.320312 5.917969 1.835937 7.890625 4.265625 1.976562 2.429687 2.886719 5.480468 2.566406 8.597656l-13.394531 129.765625c-.320313 3.117187-1.835937 5.917969-4.265625 7.890625-2.429688 1.976562-5.476562 2.886719-8.597656 2.566406-3.113282-.324218-5.914063-1.839844-7.890625-4.265625-1.972657-2.429687-2.882813-5.484375-2.5625-8.597656zm0 0"></path><path d="m201.074219 314.238281c4.859375 3.953125 10.804687 6.054688 16.984375 6.054688.9375 0 1.878906-.046875 2.824218-.144531 7.175782-.742188 13.632813-4.234376 18.183594-9.832032 4.550782-5.597656 6.648438-12.632812 5.910156-19.808594l-13.394531-129.765624c-.742187-7.175782-4.230469-13.636719-9.828125-18.1875-5.601562-4.550782-12.632812-6.648438-19.808594-5.90625-7.179687.742187-13.636718 4.230468-18.1875 9.828124-4.550781 5.597657-6.648437 12.632813-5.90625 19.8125l13.394532 129.765626c.738281 7.175781 4.230468 13.632812 9.828125 18.183593zm-5.453125-158.117187c1.976562-2.429688 4.777344-3.945313 7.890625-4.265625.414062-.042969.820312-.0625 1.226562-.0625 2.683594 0 5.261719.910156 7.371094 2.625 2.429687 1.976562 3.945313 4.777343 4.265625 7.890625l13.394531 129.769531c.320313 3.113281-.589843 6.167969-2.566406 8.597656-1.972656 2.425781-4.777344 3.941407-7.890625 4.265625-3.121094.320313-6.167969-.589844-8.597656-2.566406-2.429688-1.972656-3.941406-4.777344-4.265625-7.890625l-13.390625-129.765625c-.324219-3.117188.585937-6.167969 2.5625-8.597656zm0 0"></path><path d="m512 100.550781c0-14.332031-11.660156-25.988281-25.988281-25.988281h-54.386719c-4.222656 0-7.644531 3.421875-7.644531 7.644531 0 4.21875 3.421875 7.644531 7.644531 7.644531h54.386719c5.898437 0 10.699219 4.796876 10.699219 10.699219 0 5.902344-4.800782 10.703125-10.699219 10.703125h-363.964844l-3.4375-21.402344h282.433594c4.222656 0 7.644531-3.425781 7.644531-7.644531 0-4.222656-3.421875-7.644531-7.644531-7.644531h-284.890625l-2.273438-14.144531c-2.691406-16.742188-16.953125-28.894531-33.914062-28.894531h-2.386719c-3.566406-17.949219-19.433594-31.523438-38.414063-31.523438-21.59375 0-39.164062 17.570312-39.164062 39.167969 0 21.59375 17.570312 39.164062 39.167969 39.164062 18.980469 0 34.84375-13.574219 38.410156-31.523437h2.390625c9.410156 0 17.324219 6.746094 18.820312 16.035156l29.804688 185.519531c.667969 4.167969 4.589844 7.007813 8.757812 6.335938 4.167969-.667969 7.003907-4.589844 6.335938-8.761719l-8.855469-55.105469c0-.007812 0-.015625 0-.023437l-10.328125-64.269532h346.929688l-28.445313 177.027344c-3.351562 20.851563-21.109375 35.984375-42.226562 35.984375h-205.585938c-21.121093 0-38.878906-15.132812-42.230469-35.984375l-4.113281-25.613281c-.671875-4.167969-4.597656-7.007813-8.761719-6.335937-4.167968.671874-7.003906 4.59375-6.332031 8.761718l4.117188 25.613282c2.144531 13.367187 8.660156 25 17.953125 33.558593h-13.777344c-19.949219 0-36.179688 16.230469-36.179688 36.179688 0 19.953125 16.230469 36.183593 36.179688 36.183593h26.902344c-7.929688 7.171876-12.921875 17.535157-12.921875 29.046876 0 21.59375 17.570312 39.164062 39.164062 39.164062 21.597657 0 39.167969-17.566406 39.167969-39.164062 0-11.511719-4.992188-21.875-12.925781-29.046876h136.941406c-7.933594 7.171876-12.921875 17.535157-12.921875 29.046876 0 21.59375 17.566406 39.164062 39.164062 39.164062 21.597657 0 39.164063-17.566406 39.164063-39.164062 0-11.511719-4.988281-21.875-12.921875-29.046876h22.679688c4.222656 0 7.644531-3.421874 7.644531-7.644531 0-4.222656-3.421875-7.644531-7.644531-7.644531h-291.488282c-11.519531 0-20.894531-9.371094-20.894531-20.894531 0-11.519531 9.371094-20.890625 20.894531-20.890625h258.726563c28.664062 0 52.773437-20.542969 57.320312-48.847656l28.839844-179.476563c13.910156-.480469 25.078125-11.9375 25.078125-25.964844zm-472.832031-37.507812c-13.167969 0-23.878907-10.710938-23.878907-23.875 0-13.167969 10.710938-23.878907 23.878907-23.878907 13.164062 0 23.878906 10.710938 23.878906 23.878907 0 13.164062-10.714844 23.875-23.878906 23.875zm156.007812 401.796875c-13.167969 0-23.878906-10.710938-23.878906-23.878906 0-13.167969 10.710937-23.878907 23.878906-23.878907 13.164063 0 23.878907 10.714844 23.878907 23.878907 0 13.167968-10.714844 23.878906-23.878907 23.878906zm189.421875 0c-13.164062 0-23.878906-10.710938-23.878906-23.878906 0-13.167969 10.714844-23.878907 23.878906-23.878907 13.167969 0 23.878906 10.714844 23.878906 23.878907 0 13.167968-10.710937 23.878906-23.878906 23.878906zm0 0"></path></svg>